<svg xmlns="http://www.w3.org/2000/svg" viewBox="0 0 24 24" fill="none">
  <!-- TokenSaver mascot — cat only -->
  <path d="M8.2 5.8L9.2 3.6 10.4 5.9" stroke="currentColor" stroke-width="1.4" stroke-linecap="round" stroke-linejoin="round"/>
  <path d="M13.6 5.9L14.8 3.6 15.8 5.8" stroke="currentColor" stroke-width="1.4" stroke-linecap="round" stroke-linejoin="round"/>
  <path d="M12 7.8c-2.4 0-4.3 1.9-4.3 4.3 0 .8.2 1.5.6 2.1-.2.5-.3 1-.3 1.6 0 2.1 1.7 3.8 3.8 3.8h.4c2.1 0 3.8-1.7 3.8-3.8 0-.6-.1-1.1-.3-1.6.4-.6.6-1.3.6-2.1 0-2.4-1.9-4.3-4.3-4.3z" stroke="currentColor" stroke-width="1.4"/>
  <path d="M9.4 10.2c.5.5 1.3.5 1.8 0M13.8 10.2c.5.5 1.3.5 1.8 0" stroke="currentColor" stroke-width="1.2" stroke-linecap="round"/>
  <path d="M11.2 11.4c.5.3 1.1.3 1.6 0" stroke="currentColor" stroke-width="1.1" stroke-linecap="round"/>
  <path d="M7.8 10.6l-1.2.3M16.2 10.6l1.2.3" stroke="currentColor" stroke-width="1.1" stroke-linecap="round"/>
  <path d="M6.8 13.8c-.8.5-1.3 1.3-1.3 2.2" stroke="currentColor" stroke-width="1.3" stroke-linecap="round"/>
</svg>
